<svg xmlns="http://www.w3.org/2000/svg" width="38" height="50" viewBox="0 0 38 50" fill="none">
  <g clip-path="url(#clip0_563_997)">
    <path d="M29 0H9C8.45 0 8 0.45 8 1V18H1C0.45 18 0 18.45 0 19V49C0 49.55 0.45 50 1 50H37C37.55 50 38 49.55 38 49V19C38 18.45 37.55 18 37 18H30V1C30 0.45 29.55 0 29 0ZM8 48H2V20H8V48ZM22 48H16C16 46.09 16 41.92 16 40H22V48ZM28 19V48H24V39C24 38.45 23.55 38 23 38H15C14.45 38 14 38.45 14 39V47.44C14 47.65 14 47.83 14 48H10V2H28V19ZM36 20V48H30V20H36Z" fill="#FF595A"/>
    <path d="M13 12H17C17.55 12 18 11.55 18 11V7C18 6.45 17.55 6 17 6H13C12.45 6 12 6.45 12 7V11C12 11.55 12.45 12 13 12ZM14 8H16V10H14V8Z" fill="#FF595A"/>
    <path d="M21 12H25C25.55 12 26 11.55 26 11V7C26 6.45 25.55 6 25 6H21C20.45 6 20 6.45 20 7V11C20 11.55 20.45 12 21 12ZM22 8H24V10H22V8Z" fill="#FF595A"/>
    <path d="M13 20.04H17C17.55 20.04 18 19.59 18 19.04V15.04C18 14.49 17.55 14.04 17 14.04H13C12.45 14.04 12 14.49 12 15.04V19.04C12 19.59 12.45 20.04 13 20.04ZM14 16.04H16V18.04H14V16.04Z" fill="#FF595A"/>
    <path d="M21 20.04H25C25.55 20.04 26 19.59 26 19.04V15.04C26 14.49 25.55 14.04 25 14.04H21C20.45 14.04 20 14.49 20 15.04V19.04C20 19.59 20.45 20.04 21 20.04ZM22 16.04H24V18.04H22V16.04Z" fill="#FF595A"/>
    <path d="M13 28.0801H17C17.55 28.0801 18 27.6301 18 27.0801V23.0801C18 22.5301 17.55 22.0801 17 22.0801H13C12.45 22.0801 12 22.5301 12 23.0801V27.0801C12 27.6301 12.45 28.0801 13 28.0801ZM14 24.0801H16V26.0801H14V24.0801Z" fill="#FF595A"/>
    <path d="M21 28.0801H25C25.55 28.0801 26 27.6301 26 27.0801V23.0801C26 22.5301 25.55 22.0801 25 22.0801H21C20.45 22.0801 20 22.5301 20 23.0801V27.0801C20 27.6301 20.45 28.0801 21 28.0801ZM22 24.0801H24V26.0801H22V24.0801Z" fill="#FF595A"/>
    <path d="M13 36.1299H17C17.55 36.1299 18 35.6799 18 35.1299V31.1299C18 30.5799 17.55 30.1299 17 30.1299H13C12.45 30.1299 12 30.5799 12 31.1299V35.1299C12 35.6799 12.45 36.1299 13 36.1299ZM14 32.1299H16V34.1299H14V32.1299Z" fill="#FF595A"/>
    <path d="M21 36.1299H25C25.55 36.1299 26 35.6799 26 35.1299V31.1299C26 30.5799 25.55 30.1299 25 30.1299H21C20.45 30.1299 20 30.5799 20 31.1299V35.1299C20 35.6799 20.45 36.1299 21 36.1299ZM22 32.1299H24V34.1299H22V32.1299Z" fill="#FF595A"/>
    <path d="M5 28C5.55 28 6 27.55 6 27V23C6 22.45 5.55 22 5 22C4.45 22 4 22.45 4 23V27C4 27.55 4.45 28 5 28Z" fill="#FF595A"/>
    <path d="M5 36C5.55 36 6 35.55 6 35V31C6 30.45 5.55 30 5 30C4.45 30 4 30.45 4 31V35C4 35.55 4.45 36 5 36Z" fill="#FF595A"/>
    <path d="M5 44C5.55 44 6 43.55 6 43V39C6 38.45 5.55 38 5 38C4.45 38 4 38.45 4 39V43C4 43.55 4.45 44 5 44Z" fill="#FF595A"/>
    <path d="M33 28C33.55 28 34 27.55 34 27V23C34 22.45 33.55 22 33 22C32.45 22 32 22.45 32 23V27C32 27.55 32.45 28 33 28Z" fill="#FF595A"/>
    <path d="M33 36C33.55 36 34 35.55 34 35V31C34 30.45 33.55 30 33 30C32.45 30 32 30.45 32 31V35C32 35.55 32.45 36 33 36Z" fill="#FF595A"/>
    <path d="M33 44C33.55 44 34 43.55 34 43V39C34 38.45 33.55 38 33 38C32.45 38 32 38.45 32 39V43C32 43.55 32.45 44 33 44Z" fill="#FF595A"/>
  </g>
  <defs>
    <clipPath id="clip0_563_997">
      <rect width="38" height="50" fill="white"/>
    </clipPath>
  </defs>
</svg>