<svg xmlns="http://www.w3.org/2000/svg" width="54" height="47" viewBox="0 0 54 47" fill="none">
  <g clip-path="url(#clip0_563_1013)">
    <path fill-rule="evenodd" clip-rule="evenodd" d="M15.4994 13.1422L16.5252 17.6674L21.2219 18.0856C21.6214 18.1178 21.9238 18.4717 21.8806 18.8792C21.859 19.1258 21.7186 19.3295 21.5243 19.4368L17.4645 21.8173L18.5118 26.3854C18.5982 26.7822 18.3499 27.1682 17.9612 27.254C17.7236 27.3076 17.4861 27.2433 17.3134 27.0932L13.7719 23.9941L9.72293 26.3962C9.37742 26.5999 8.92394 26.4927 8.71879 26.1495C8.58922 25.9243 8.58922 25.667 8.6864 25.4525L10.5435 21.1847L6.99124 18.0964C6.68892 17.8283 6.65653 17.3672 6.92646 17.0669C7.08842 16.8846 7.31516 16.7988 7.5419 16.8203L12.2387 17.2599L14.0958 12.9599C14.2578 12.5846 14.6896 12.413 15.0567 12.5739C15.3051 12.6918 15.4562 12.9063 15.4994 13.1422ZM37.6985 42.1915C37.4933 41.8484 37.6121 41.398 37.9576 41.1942C38.3031 40.9905 38.7566 41.1084 38.9617 41.4516C39.3828 42.1486 39.9659 42.4381 40.4733 42.406C40.6677 42.3952 40.862 42.3309 41.024 42.2344C41.1967 42.1272 41.3371 41.9878 41.4451 41.7947C41.7798 41.205 41.769 40.2506 41.024 39.0174C40.4841 38.1167 40.333 37.0229 40.5381 36.0578C40.6677 35.468 40.9268 34.9211 41.3155 34.4815C41.7258 34.0311 42.2657 33.7094 42.9351 33.5914C43.7773 33.4413 44.803 33.6343 45.9799 34.3314C46.8005 34.8139 47.4591 35.0391 47.9558 35.0498C48.2149 35.0498 48.3985 34.9962 48.528 34.889C48.6684 34.771 48.7548 34.5673 48.798 34.2992C48.8951 33.7416 48.7764 32.9802 48.4525 32.058C48.0746 30.9964 47.9774 30.0528 48.0962 29.2807C48.2149 28.4979 48.5604 27.876 49.0679 27.4256C49.5754 26.9752 50.2232 26.7178 50.9682 26.6642C51.7456 26.6106 52.6418 26.7715 53.5703 27.2004C53.9374 27.372 54.0994 27.8009 53.9374 28.1655C53.7647 28.5301 53.3328 28.6909 52.9657 28.5301C52.2639 28.2191 51.6268 28.0904 51.0762 28.1226C50.6551 28.1548 50.2988 28.2834 50.0396 28.5194C49.7805 28.7445 49.6078 29.077 49.543 29.5059C49.4566 30.0528 49.543 30.7498 49.8345 31.5755C50.2448 32.7336 50.3744 33.7523 50.2448 34.5351C50.1476 35.1463 49.8885 35.6289 49.4998 35.972C49.1003 36.3259 48.5712 36.5082 47.9234 36.4974C47.1892 36.4867 46.2822 36.1972 45.2349 35.5752C44.3819 35.082 43.7017 34.9319 43.1942 35.0176C42.8703 35.0713 42.6112 35.2321 42.4168 35.4466C42.2009 35.6825 42.0605 35.9935 41.9849 36.3366C41.8554 36.9585 41.9525 37.6663 42.2981 38.2561C43.3454 40.0147 43.2914 41.5052 42.7192 42.5025C42.4816 42.8992 42.1685 43.2209 41.8014 43.4568C41.4343 43.682 41.0132 43.8214 40.5813 43.8536C39.5556 43.9287 38.4327 43.4247 37.6985 42.1915ZM1.35511 29.0126C1.66822 28.766 2.1325 28.8196 2.38084 29.1306C2.62917 29.4416 2.57519 29.9027 2.26207 30.1493C1.61424 30.6533 1.40909 31.2645 1.51706 31.7685C1.56025 31.9615 1.64663 32.1331 1.7654 32.2832C1.89497 32.4333 2.05692 32.5513 2.26207 32.6371C2.88831 32.8944 3.84926 32.7443 4.97217 31.8543C5.80355 31.2002 6.87247 30.8999 7.85502 30.975C8.45966 31.0179 9.04271 31.2002 9.52858 31.5326C10.036 31.8757 10.4247 32.369 10.6299 33.0017C10.889 33.8059 10.8458 34.8461 10.306 36.1007C9.93887 36.98 9.79851 37.6556 9.8525 38.1381C9.88489 38.3955 9.96047 38.5778 10.09 38.685C10.2304 38.8029 10.4355 38.8673 10.7163 38.878C11.2777 38.8995 12.0335 38.685 12.9081 38.2346C13.923 37.7199 14.8408 37.4947 15.629 37.5054C16.4172 37.5162 17.0866 37.7735 17.6049 38.2132C18.1231 38.6528 18.4687 39.2533 18.6198 39.9825C18.7818 40.7439 18.7386 41.6446 18.4363 42.6204C18.3175 43.0065 17.9072 43.2209 17.5185 43.1137C17.1298 42.9957 16.9139 42.5883 17.0218 42.2022C17.2486 41.473 17.281 40.8189 17.173 40.2828C17.0866 39.8753 16.9031 39.5429 16.6439 39.3177C16.3848 39.0925 16.0285 38.9745 15.5858 38.9638C15.0244 38.9531 14.3441 39.1246 13.5559 39.5321C12.4546 40.0897 11.4613 40.3578 10.6515 40.3364C10.036 40.3149 9.50699 40.1326 9.10749 39.7895C8.6972 39.4356 8.43806 38.9424 8.36248 38.3097C8.27611 37.5805 8.43806 36.6583 8.91314 35.5431C9.30184 34.6316 9.35583 33.9453 9.19387 33.452C9.09669 33.1411 8.90234 32.9052 8.66481 32.7443C8.40567 32.562 8.07096 32.4655 7.71465 32.4441C7.07762 32.4012 6.3758 32.5942 5.84674 33.0124C4.22716 34.2885 2.73715 34.4386 1.66822 33.9989C1.23634 33.8274 0.880029 33.5593 0.599302 33.2269C0.318575 32.8944 0.124225 32.4977 0.0378479 32.0795C-0.12411 31.0715 0.2214 29.9027 1.35511 29.0126ZM24.6123 13.6033C24.6123 13.2066 24.9362 12.8741 25.3357 12.8741C25.7352 12.8741 26.0699 13.1958 26.0699 13.5926C26.0915 15.7372 26.329 18.1392 26.7825 20.7879C27.236 23.4473 27.9054 26.364 28.7908 29.5166C28.8987 29.9027 28.672 30.3101 28.2833 30.4174C27.8946 30.5246 27.4843 30.2994 27.3763 29.9134C26.4694 26.7071 25.7892 23.7475 25.3357 21.0452C24.8714 18.3108 24.6339 15.8337 24.6123 13.6033ZM26.9445 0.606734C26.9013 0.370822 26.7501 0.156357 26.5126 0.059848C26.1347 -0.101001 25.7136 0.0705712 25.5516 0.445885L23.6945 4.74591L18.9977 4.30625C18.771 4.28481 18.5334 4.37059 18.3823 4.55289C18.1123 4.85314 18.1447 5.31424 18.4471 5.58232L21.9993 8.67062L20.1422 12.9385C20.0342 13.1529 20.0342 13.4103 20.1746 13.6355C20.3798 13.9786 20.8332 14.0966 21.1788 13.8821L25.2277 11.4801L28.7692 14.5791C28.9419 14.7293 29.1795 14.7936 29.417 14.74C29.8165 14.6542 30.0648 14.2574 29.9677 13.8714L28.9203 9.30329L32.9801 6.92273C33.1744 6.80477 33.3148 6.60103 33.3364 6.36512C33.3688 5.96836 33.0773 5.61449 32.6778 5.5716L27.981 5.15339L26.9445 0.606734ZM33.2608 26.868C31.9975 28.5944 30.9286 31.0715 30.054 34.3314C29.2011 37.5269 28.5208 41.4838 28.035 46.202C27.9918 46.5987 28.2833 46.9633 28.6936 46.9955C29.0931 47.0384 29.4602 46.7489 29.4926 46.3414C29.9785 41.6982 30.6371 37.8164 31.4685 34.6852C32.2891 31.6076 33.2824 29.2914 34.4377 27.7151C34.6752 27.3934 34.6105 26.9323 34.2757 26.6964C33.9626 26.4712 33.4983 26.5356 33.2608 26.868ZM34.9776 21.5278L30.6911 23.4687C30.324 23.6403 30.162 24.0692 30.324 24.4338C30.4211 24.659 30.6263 24.7984 30.853 24.8413L35.4742 25.7528L36.0141 30.4066C36.0573 30.8034 36.4244 31.0929 36.8239 31.05C37.083 31.0179 37.299 30.857 37.4069 30.6426L39.6851 26.5892L44.3063 27.5114C44.7058 27.5864 45.0837 27.3398 45.1701 26.943C45.2133 26.7071 45.1377 26.4712 44.9866 26.3104L41.7798 22.8789L44.0904 18.7934C44.2847 18.4395 44.166 17.9998 43.8097 17.7961C43.5829 17.6674 43.3238 17.6781 43.1186 17.7854L38.8646 19.737L35.6686 16.2948C35.3987 15.9946 34.9344 15.9839 34.6321 16.252C34.4485 16.4128 34.3729 16.6487 34.4053 16.8739L34.9776 21.5278ZM19.8507 24.3909C20.9088 25.5276 22.3125 28.4228 23.4246 32.1009C24.3531 35.157 25.0549 38.7172 25.1953 42.2237C25.2061 42.6204 25.5516 42.9421 25.9511 42.9207C26.3506 42.91 26.6745 42.5668 26.6529 42.17C26.5126 38.5134 25.7784 34.8353 24.8174 31.6827C23.6405 27.8009 22.1073 24.6804 20.9088 23.3936C20.6389 23.1041 20.1746 23.0827 19.8723 23.3507C19.6024 23.6296 19.5808 24.0907 19.8507 24.3909Z" fill="#FF595A"/>
  </g>
  <defs>
    <clipPath id="clip0_563_1013">
      <rect width="54" height="47" fill="white"/>
    </clipPath>
  </defs>
</svg>