<svg xmlns="http://www.w3.org/2000/svg" width="59" height="45" viewBox="0 0 59 45" fill="none">
  <g clip-path="url(#clip0_563_973)">
    <path d="M57.9877 10.8675C57.8796 10.422 57.4668 10.1217 57.0048 10.1314H46.5277L47.9725 6.25709C48.1003 5.9084 48.4246 5.65657 48.8079 5.62751L57.2309 4.90108C57.7715 4.85265 58.1744 4.38774 58.1253 3.85502L57.8599 0.881496C57.8108 0.34878 57.339 -0.0483358 56.7984 9.29674e-05L47.6973 0.784639C45.7906 0.949297 44.1591 2.17939 43.5006 3.95188L41.2106 10.1314H29.4853C29.0233 10.1217 28.6105 10.422 28.5024 10.8675L27.5196 14.7418C27.3918 15.2648 27.7063 15.7879 28.237 15.9138C28.3255 15.9332 28.414 15.9428 28.5024 15.9428H29.6032L33.4166 44.1574C33.4854 44.6417 33.8982 45.0001 34.3995 45.0001H52.0906C52.5919 45.0001 53.0047 44.6417 53.0735 44.1574L56.8869 15.9428H57.9877C58.5282 15.9622 58.9803 15.536 59 15.0033C59 14.9162 59 14.829 58.9705 14.7418L57.9877 10.8675ZM45.3483 4.58145C45.7316 3.50633 46.7145 2.75085 47.8644 2.6443L56.022 1.97599L56.1104 3.02205L48.6703 3.66131C47.5204 3.76785 46.5376 4.52334 46.1543 5.59846L44.4343 10.1314H43.304L45.3483 4.58145ZM51.2454 43.0629H35.2644L31.5885 15.9428H54.9016L51.2454 43.0629ZM56.022 14.0057H29.7605L30.2519 12.0685H56.2382L56.7296 14.0057H56.022Z" fill="#FF595A"/>
    <path d="M41.8298 30.3263C42.1639 30.3263 42.4883 30.2876 42.8126 30.2004C44.7685 29.5805 46.3115 28.0598 46.9405 26.1324C47.4516 24.912 46.8717 23.5075 45.6334 23.0039C45.0338 22.7617 44.3655 22.7617 43.766 23.0039C41.8101 23.6238 40.267 25.1444 39.638 27.0719C39.3137 27.9727 39.5103 28.9703 40.1589 29.687C40.611 30.1132 41.2106 30.336 41.8298 30.3263ZM41.4858 27.5659C41.9379 26.297 42.9502 25.2994 44.2377 24.8539C44.3753 24.8151 44.5227 24.7861 44.6702 24.7861C44.7783 24.7764 44.8962 24.8054 44.9847 24.8635C45.0633 24.941 45.1125 25.2122 44.9847 25.59C44.5326 26.8588 43.5202 27.8564 42.2327 28.302C41.8396 28.4085 41.5742 28.3698 41.4956 28.302C41.417 28.2342 41.3875 27.963 41.4956 27.5659H41.4858Z" fill="#FF595A"/>
    <path d="M18.674 17.8799H8.84558C3.96085 17.8799 0 21.7832 0 26.5971V27.5656C0 28.2824 0.275196 28.9701 0.766617 29.5028C0.275196 30.0355 0 30.7232 0 31.4399C0 32.1567 0.275196 32.8444 0.766617 33.3771C0.275196 33.9098 0 34.5975 0 35.3142V36.2828C0 41.0966 3.96085 45 8.84558 45H18.674C23.5587 45 27.5196 41.0966 27.5196 36.2828V35.3142C27.5196 34.5975 27.2444 33.9098 26.753 33.3771C27.2444 32.8541 27.5196 32.1567 27.5196 31.4399C27.5196 30.7232 27.2444 30.0355 26.753 29.5028C27.2444 28.9701 27.5196 28.2824 27.5196 27.5656V26.5971C27.5196 21.7832 23.5587 17.8799 18.674 17.8799ZM25.5539 36.2828C25.5539 40.0312 22.4776 43.0628 18.674 43.0628H8.84558C5.04198 43.0628 1.96568 40.0312 1.96568 36.2828V35.3142C1.96568 34.7815 2.40796 34.3457 2.94853 34.3457H7.86274V36.7671C7.86274 38.1037 8.96352 39.1885 10.3198 39.1885C11.6762 39.1885 12.7769 38.1037 12.7769 36.7671V34.3457H14.7426V34.8299C14.7426 36.1666 15.8434 37.2514 17.1997 37.2514C18.5561 37.2514 19.6568 36.1666 19.6568 34.8299V34.3457H24.571C25.1116 34.3457 25.5539 34.7815 25.5539 35.3142V36.2828ZM25.2492 32.1276C25.0723 32.302 24.8266 32.4085 24.571 32.4085H18.674C18.1334 32.4085 17.6912 32.8444 17.6912 33.3771V34.8299C17.6912 35.1011 17.4749 35.3142 17.1997 35.3142C16.9245 35.3142 16.7083 35.1011 16.7083 34.8299V33.3771C16.7083 32.8444 16.266 32.4085 15.7255 32.4085H11.7941C11.2535 32.4085 10.8113 32.8444 10.8113 33.3771V36.7671C10.8113 37.0383 10.595 37.2514 10.3198 37.2514C10.0446 37.2514 9.82842 37.0383 9.82842 36.7671V33.3771C9.82842 32.8444 9.38614 32.4085 8.84558 32.4085H2.94853C2.40796 32.4085 1.96568 31.9727 1.96568 31.4399C1.96568 31.1784 2.08362 30.9363 2.27036 30.7522C2.44728 30.5779 2.69299 30.4714 2.94853 30.4714H24.571C25.1116 30.4714 25.5539 30.9072 25.5539 31.4399C25.5539 31.7014 25.4359 31.9436 25.2492 32.1276ZM25.5539 27.5656C25.5539 28.0984 25.1116 28.5342 24.571 28.5342H2.94853C2.40796 28.5342 1.96568 28.0984 1.96568 27.5656V26.5971C1.96568 22.8487 5.04198 19.817 8.84558 19.817H18.674C22.4776 19.817 25.5539 22.8487 25.5539 26.5971V27.5656Z" fill="#FF595A"/>
  </g>
  <defs>
    <clipPath id="clip0_563_973">
      <rect width="59" height="45" fill="white"/>
    </clipPath>
  </defs>
</svg>