<svg xmlns="http://www.w3.org/2000/svg" width="45" height="45" viewBox="0 0 45 45" fill="none">
  <g clip-path="url(#clip0_563_1015)">
    <path d="M16.7075 21.6214L13.4006 41.25C13.098 43.0071 14.3083 44.6571 16.0591 44.9571C16.232 44.9786 16.4049 45 16.5994 45H41.7579C43.5519 45 45 43.5643 45 41.7857C45 41.6143 45 41.4214 44.9568 41.25L41.6499 21.6214C41.2176 19.0286 38.9697 17.1429 36.3112 17.1429H22.0245C19.3876 17.1429 17.1181 19.0286 16.6859 21.6214H16.7075ZM39.5317 21.9643L42.8386 41.6143C42.9467 42.1929 42.536 42.75 41.9524 42.8571C41.8876 42.8571 41.8228 42.8571 41.7795 42.8571H16.5994C15.9942 42.8571 15.5187 42.3857 15.5187 41.7857C15.5187 41.7214 15.5187 41.6571 15.5187 41.6143L18.8256 21.9857C19.085 20.4429 20.4467 19.3071 22.0245 19.3071H36.3112C37.889 19.3071 39.2507 20.4429 39.5101 21.9857L39.5317 21.9643ZM22.6945 23.5714C23.2997 23.5714 23.7752 24.0429 23.7752 24.6429C23.7752 27.6 26.196 30 29.1787 30C32.1614 30 34.5821 27.6 34.5821 24.6429C34.5821 24.0429 35.0576 23.5714 35.6628 23.5714C36.268 23.5714 36.7435 24.0429 36.7435 24.6429C36.7435 28.7786 33.3501 32.1429 29.1787 32.1429C25.0072 32.1429 21.6138 28.7786 21.6138 24.6429C21.6138 24.0429 22.0893 23.5714 22.6945 23.5714ZM9.72622 36.4286H10.9366L11.304 34.2857H9.74783C5.57636 34.2857 2.18299 30.9214 2.18299 26.7857V16.0714C2.18299 14.2929 3.63112 12.8571 5.42507 12.8571H24.8775C25.7853 12.8571 26.6715 13.2429 27.2766 13.9286H29.8271C28.9625 11.9786 27.0173 10.7143 24.8775 10.7143H22.7161V7.5C22.7161 3.36429 19.3228 0 15.1513 0C10.9798 0 7.58645 3.36429 7.58645 7.5V10.7143H5.42507C2.44236 10.7143 0.0216064 13.1143 0.0216064 16.0714V26.7857C0.0216064 32.1 4.3876 36.4286 9.74783 36.4286H9.72622ZM9.72622 7.5C9.72622 4.54286 12.147 2.14286 15.1297 2.14286C18.1124 2.14286 20.5331 4.54286 20.5331 7.5V10.7143H9.72622V7.5Z" fill="#FF595A"/>
  </g>
  <defs>
    <clipPath id="clip0_563_1015">
      <rect width="45" height="45" fill="white"/>
    </clipPath>
  </defs>
</svg>